<svg xmlns="http://www.w3.org/2000/svg" viewBox="0 0 128 128">
  <defs>
    <linearGradient id="g" x1="0" x2="1" y1="0" y2="1">
      <stop offset="0" stop-color="#7c3aed"/>
      <stop offset="1" stop-color="#06b6d4"/>
    </linearGradient>
  </defs>
  <rect width="128" height="128" rx="16" fill="url(#g)"/>
  <g fill="#fff">
    <path d="M64 26a20 20 0 0 0-20 20v20a20 20 0 0 0 40 0V46A20 20 0 0 0 64 26zM44 66a20 20 0 0 0 40 0h-8a12 12 0 0 1-24 0z"/>
    <path d="M32 58h8v4a24 24 0 0 0 48 0v-4h8v4a32 32 0 0 1-26 31.5V102h10a6 6 0 0 1 0 12H56a6 6 0 0 1 0-12h10v-8.5A32 32 0 0 1 32 62z"/>
  </g>
</svg>
